<?xml version="1.0" standalone="no"?><!DOCTYPE svg PUBLIC "-//W3C//DTD SVG 1.1//EN" "http://www.w3.org/Graphics/SVG/1.1/DTD/svg11.dtd"><svg t="1617720593282" class="icon" viewBox="0 0 1024 1024" version="1.1" xmlns="http://www.w3.org/2000/svg" p-id="3415" xmlns:xlink="http://www.w3.org/1999/xlink" width="200" height="200"><defs><style type="text/css"></style></defs><path d="M313.344 228.352c-19.456 0-34.816-15.36-34.816-34.816v-158.72C278.528 15.36 293.888 0 313.344 0s33.792 15.36 33.792 34.816v158.72c0 19.456-15.36 34.816-33.792 34.816z m397.312 0c-19.456 0-34.816-15.36-34.816-34.816v-158.72C675.84 15.36 691.2 0 710.656 0s34.816 15.36 34.816 34.816v158.72c0 19.456-15.36 34.816-34.816 34.816zM869.376 1024H153.6A123.232 123.232 0 0 1 30.72 901.12V202.752a123.232 123.232 0 0 1 122.88-122.88h715.776c68.608 0 123.904 55.296 123.904 122.88V901.12c0 67.584-55.296 122.88-123.904 122.88zM153.6 148.48c-29.696 0-53.248 24.576-53.248 54.272V901.12c0 29.696 23.552 53.248 53.248 53.248h715.776c29.696 0 54.272-23.552 54.272-53.248V202.752c0-29.696-24.576-54.272-54.272-54.272H153.6z m804.864 257.024H74.752c-19.456 0-34.816-15.36-34.816-34.816s15.36-34.816 34.816-34.816h883.712c18.432 0 34.816 15.36 34.816 34.816s-16.384 34.816-34.816 34.816z m-645.12 220.16H233.472c-19.456 0-34.816-15.36-34.816-33.792 0-19.456 15.36-34.816 34.816-34.816h79.872c18.432 0 33.792 15.36 33.792 34.816 0 18.432-15.36 33.792-33.792 33.792z m238.592 0h-79.872c-19.456 0-34.816-15.36-34.816-33.792 0-19.456 15.36-34.816 34.816-34.816h79.872a35.2 35.2 0 0 1 34.816 34.816c0 18.432-16.384 33.792-34.816 33.792z m238.592 0h-79.872c-19.456 0-34.816-15.36-34.816-33.792 0-19.456 15.36-34.816 34.816-34.816h79.872a35.2 35.2 0 0 1 34.816 34.816c0 18.432-16.384 33.792-34.816 33.792zM313.344 785.408H233.472c-19.456 0-34.816-15.36-34.816-34.816s15.36-34.816 34.816-34.816h79.872c18.432 0 33.792 15.36 33.792 34.816s-15.36 34.816-33.792 34.816z m238.592 0h-79.872c-19.456 0-34.816-15.36-34.816-34.816s15.36-34.816 34.816-34.816h79.872c18.432 0 34.816 15.36 34.816 34.816s-16.384 34.816-34.816 34.816z" p-id="3416"></path></svg>