<?xml version="1.0" standalone="no"?><!DOCTYPE svg PUBLIC "-//W3C//DTD SVG 1.1//EN" "http://www.w3.org/Graphics/SVG/1.1/DTD/svg11.dtd"><svg t="1617945408206" class="icon" viewBox="0 0 1024 1024" version="1.1" xmlns="http://www.w3.org/2000/svg" p-id="26961" xmlns:xlink="http://www.w3.org/1999/xlink" width="200" height="200"><defs><style type="text/css"></style></defs><path d="M512 968a48 48 0 0 1-36.32-16.64C401.6 865.36 160 572.48 160 408a352 352 0 0 1 574.48-272.8 32 32 0 1 1-40.48 49.6A288 288 0 0 0 224 408c0 110 152.4 328 288 487.2C647.6 736 800 518 800 408a289.68 289.68 0 0 0-7.36-64.8 32 32 0 1 1 62.4-14.32A353.84 353.84 0 0 1 864 408c0 164.32-241.6 457.2-315.68 543.04A48 48 0 0 1 512 968z" p-id="26962" fill="#8a8a8a"></path><path d="M512 536a128 128 0 1 1 128-128 128 128 0 0 1-128 128z m0-192a64 64 0 1 0 64 64 64 64 0 0 0-64-64z" p-id="26963" fill="#8a8a8a"></path><path d="M784.029657 240.167598m-22.627417 22.627417a32 32 0 1 0 45.254834-45.254834 32 32 0 1 0-45.254834 45.254834Z" p-id="26964" fill="#8a8a8a"></path></svg>