<?xml version="1.0" standalone="no"?><!DOCTYPE svg PUBLIC "-//W3C//DTD SVG 1.1//EN" "http://www.w3.org/Graphics/SVG/1.1/DTD/svg11.dtd"><svg t="1617940144934" class="icon" viewBox="0 0 1024 1024" version="1.1" xmlns="http://www.w3.org/2000/svg" p-id="22708" xmlns:xlink="http://www.w3.org/1999/xlink" width="200" height="200"><defs><style type="text/css"></style></defs><path d="M892.915 191.943H130.496c-36.735 0-66.515 29.78-66.515 66.514v570.538c0 36.734 29.78 66.515 66.515 66.515h762.42c36.734 0 66.514-29.78 66.514-66.515V258.457c0-36.735-29.779-66.514-66.515-66.514z m-28.145 63.96c0.518 0 1.033 0.014 1.545 0.04L511.879 564.945 157.435 255.933c0.4-0.015 0.802-0.03 1.206-0.03h706.13z m0 575.646H158.641c-16.955 0-30.7-13.744-30.7-30.7V314.878L490.17 630.675c5.995 5.995 13.853 8.992 21.71 8.992 7.858 0 15.716-2.997 21.71-8.992L895.47 315.18V800.85c0 16.955-13.743 30.7-30.699 30.7z" p-id="22709" fill="#8a8a8a"></path></svg>