<?xml version="1.0" standalone="no"?><!DOCTYPE svg PUBLIC "-//W3C//DTD SVG 1.1//EN" "http://www.w3.org/Graphics/SVG/1.1/DTD/svg11.dtd"><svg t="1617769923539" class="icon" viewBox="0 0 1024 1024" version="1.1" xmlns="http://www.w3.org/2000/svg" p-id="5096" xmlns:xlink="http://www.w3.org/1999/xlink" width="200" height="200"><defs><style type="text/css"></style></defs><path d="M512 96C282.256 96 96 282.256 96 512s186.256 416 416 416 416-186.256 416-416S741.744 96 512 96zM512 898.288C298.656 898.288 125.712 725.344 125.712 512S298.656 125.712 512 125.712 898.288 298.656 898.288 512 725.344 898.288 512 898.288z" p-id="5097"></path><path d="M729.808 436.688c-6.256-6.256-16.368-6.256-22.624 0L512 631.872 316.816 436.688c-6.256-6.256-16.368-6.256-22.624 0s-6.256 16.368 0 22.624l206.384 206.384c3.152 3.152 7.296 4.688 11.424 4.672 4.128 0.016 8.272-1.52 11.424-4.672l206.384-206.384C736.064 453.056 736.064 442.944 729.808 436.688z" p-id="5098"></path></svg>