<?xml version="1.0" standalone="no"?><!DOCTYPE svg PUBLIC "-//W3C//DTD SVG 1.1//EN" "http://www.w3.org/Graphics/SVG/1.1/DTD/svg11.dtd"><svg t="1617694360746" class="icon" viewBox="0 0 1024 1024" version="1.1" xmlns="http://www.w3.org/2000/svg" p-id="5386" xmlns:xlink="http://www.w3.org/1999/xlink" width="200" height="200"><defs><style type="text/css"></style></defs><path d="M448 170.666667a192 192 0 0 1 98.56 356.821333A320.085333 320.085333 0 0 1 768 832a42.666667 42.666667 0 0 1-85.333333 0 234.666667 234.666667 0 0 0-469.333334 0 42.666667 42.666667 0 0 1-85.333333 0 320.128 320.128 0 0 1 221.44-304.554667A192 192 0 0 1 448 170.666667z m256 42.666666a149.333333 149.333333 0 0 1 107.434667 253.056A212.992 212.992 0 0 1 917.333333 650.666667a42.666667 42.666667 0 0 1-85.333333 0 128 128 0 0 0-128-128 42.666667 42.666667 0 0 1-42.325333-48.042667 42.666667 42.666667 0 0 1 37.376-47.701333L704 426.666667a64 64 0 0 0 6.144-127.701334L704 298.666667a42.666667 42.666667 0 0 1 0-85.333334z m-256 42.666667a106.666667 106.666667 0 1 0 0 213.333333 106.666667 106.666667 0 0 0 0-213.333333z" fill="#434A54" p-id="5387"></path></svg>