<?xml version="1.0" standalone="no"?><!DOCTYPE svg PUBLIC "-//W3C//DTD SVG 1.1//EN" "http://www.w3.org/Graphics/SVG/1.1/DTD/svg11.dtd"><svg t="1617945233612" class="icon" viewBox="0 0 1024 1024" version="1.1" xmlns="http://www.w3.org/2000/svg" p-id="24474" xmlns:xlink="http://www.w3.org/1999/xlink" width="200" height="200"><defs><style type="text/css"></style></defs><path d="M512 106.666667v352.426666a128 128 0 0 1-37.546667 90.453334l-35.413333 35.413333a42.666667 42.666667 0 0 1-29.866667 12.373333H384v320a21.333333 21.333333 0 0 1-21.333333 21.333334h-42.666667a21.333333 21.333333 0 0 1-21.333333-21.333334V597.333333h-25.173334a42.666667 42.666667 0 0 1-29.866666-12.373333l-35.413334-35.413333A128 128 0 0 1 170.666667 459.093333V106.666667a21.333333 21.333333 0 0 1 21.333333-21.333334h32a21.333333 21.333333 0 0 1 21.333333 21.333334v298.666666a21.333333 21.333333 0 0 0 21.333334 21.333334h15.786666a21.333333 21.333333 0 0 0 21.333334-21.333334v-298.666666a21.333333 21.333333 0 0 1 21.333333-21.333334h32.426667a21.333333 21.333333 0 0 1 21.333333 21.333334v298.666666a21.333333 21.333333 0 0 0 21.333333 21.333334h15.786667a21.333333 21.333333 0 0 0 21.333333-21.333334v-298.666666a21.333333 21.333333 0 0 1 21.333334-21.333334h32a21.333333 21.333333 0 0 1 21.333333 21.333334z m341.333333 0a21.333333 21.333333 0 0 0-21.333333-21.333334H810.666667a170.666667 170.666667 0 0 0-170.666667 170.666667v298.666667a42.666667 42.666667 0 0 0 42.666667 42.666666h85.333333v320a21.333333 21.333333 0 0 0 21.333333 21.333334h42.666667a21.333333 21.333333 0 0 0 21.333333-21.333334z" p-id="24475" fill="#8a8a8a"></path></svg>