<?xml version="1.0" standalone="no"?><!DOCTYPE svg PUBLIC "-//W3C//DTD SVG 1.1//EN" "http://www.w3.org/Graphics/SVG/1.1/DTD/svg11.dtd"><svg t="1617945300229" class="icon" viewBox="0 0 1024 1024" version="1.1" xmlns="http://www.w3.org/2000/svg" p-id="26145" xmlns:xlink="http://www.w3.org/1999/xlink" width="200" height="200"><defs><style type="text/css"></style></defs><path d="M512.118704 212.006532c22.965038 0 41.584094 18.615986 41.584094 41.582047l0 216.712717 127.996163 0c22.966061 0 41.584094 18.615986 41.582047 41.580001 0 22.970154-18.615986 41.584094-41.582047 41.584094L511.804549 553.46539c-22.962991 0-41.580001-18.615986-41.580001-41.580001 0-1.062192 0.23536-2.057869 0.312108-3.099594L470.536656 253.588579C470.537679 230.622518 489.153666 212.004485 512.118704 212.006532zM933.729044 625.030309c-10.784624 40.248679-27.16571 77.43358-47.573505 111.480001l-0.461511-0.276293c-7.012717 13.05841-20.632923 22.039969-36.494169 22.039969-22.962991 0-41.580001-18.615986-41.580001-41.584094 0-9.314133 3.170203-17.823947 8.345062-24.755824 16.023952-27.071565 28.949332-56.536644 37.489846-88.412632 50.531883-188.587146-61.383022-382.425899-249.964028-432.957783-188.585099-50.529837-382.425899 61.385069-432.955736 249.968122-50.531883 188.581006 61.383022 382.423853 249.968122 432.953689 95.677083 25.63689 192.547341 9.195429 271.530207-37.59627 6.906294-5.112438 15.371082-8.239662 24.626887-8.239662 22.962991 0 41.582047 18.618033 41.582047 41.584094 0 15.869433-8.993838 29.495778-22.065552 36.504402l0.270153 0.451278c-97.916077 58.72345-218.455407 79.45154-337.451592 47.567365C166.083619 871.349321 27.861558 631.93865 90.269933 399.025972c62.409398-232.914724 301.815977-371.134739 534.730701-308.724317C857.915357 152.709007 996.139465 392.113539 933.729044 625.030309z" p-id="26146" fill="#8a8a8a"></path></svg>